<svg width="24" height="24" viewBox="0 0 24 24" fill="none" xmlns="http://www.w3.org/2000/svg">
<path d="M18 7.00024C18 7.30024 17.9 7.50024 17.7 7.70024L7.7 17.7002C7.3 18.1002 6.7 18.1002 6.3 17.7002C5.9 17.3002 5.9 16.7002 6.3 16.3002L16.3 6.30024C16.7 5.90024 17.3 5.90024 17.7 6.30024C17.9 6.50024 18 6.70024 18 7.00024Z" fill="#408EF6"/>
<path d="M18 7.00024L18 16.0002C18 16.6002 17.6 17.0002 17 17.0002C16.4 17.0002 16 16.6002 16 16.0002L16 8.00024L8 8.00024C7.4 8.00024 7 7.60024 7 7.00024C7 6.40024 7.4 6.00024 8 6.00024L17 6.00024C17.6 6.00024 18 6.40024 18 7.00024Z" fill="#408EF6"/>
</svg>
